<mxfile host="app.diagrams.net" modified="2024-04-10T14:00:22.679Z" agent="Mozilla/5.0 (Windows NT 10.0; Win64; x64) AppleWebKit/537.36 (KHTML, like Gecko) Chrome/123.0.0.0 Safari/537.36" version="24.2.3" etag="Liyd14OukuFJE3rj7nUi" type="github">
  <diagram name="PÃ¡gina-1" id="qI5p7QWz9F6xZ1Ftp386">
    <mxGraphModel>
      <root>
        <mxCell id="0" />
        <mxCell id="1" parent="0" />
      </root>
    </mxGraphModel>
  </diagram>
</mxfile>
